<?xml version="1.0" encoding="utf-8"?>
<svg viewBox="0 0 500 500" xmlns="http://www.w3.org/2000/svg">
  <g id="g10" transform="matrix(0.970769, 0, 0, -0.970769, 2.265619, 496.581665)" style="">
    <g id="g12" transform="scale(0.1)">
      <path d="M 4806.686 2361.031 C 4689.15 2980.965 4129.082 3377.878 3745.777 3712.922 C 3362.461 4047.966 3267.657 4306.827 2500.176 4392.288 C 1732.695 4477.727 1208.739 3807.019 1006.036 3383.066 C 803.315 2959.102 440.826 2885.998 285.824 2100.016 C 144.02 1380.992 869.533 322.345 1891.097 583.631 C 2434.544 722.64 2871.538 668.735 3240.671 614.825 C 3565.425 567.405 3837.655 519.979 4083.616 603.927 C 4607.768 782.803 4904.503 1845.07 4806.686 2361.031" style="fill: rgb(236, 241, 250); fill-opacity: 1; fill-rule: nonzero; stroke: none;" id="path16"/>
      <path d="M 1361.442 783.019 L 1353.795 783.019 C 1358.657 800.431 1361.442 818.719 1361.442 837.686 C 1361.442 949.98 1270.412 1041.01 1158.118 1041.01 C 1087.439 1041.01 1025.234 1004.909 988.807 950.176 C 971.251 957.257 952.129 961.238 932.05 961.238 C 848.111 961.238 780.056 893.191 780.056 809.244 C 780.056 800.278 780.987 791.547 782.474 783.019 L 759.607 783.019 C 698.773 783.019 649.456 733.703 649.456 672.856 C 649.456 612.034 698.773 562.705 759.607 562.705 L 1361.442 562.705 C 1422.277 562.705 1471.593 612.034 1471.593 672.856 C 1471.593 733.703 1422.277 783.019 1361.442 783.019" style="fill: rgb(128, 175, 226); fill-opacity: 1; fill-rule: nonzero; stroke: none;" id="path18"/>
      <path d="M 1507.269 3891.272 L 1498.633 3891.272 C 1504.115 3910.927 1507.269 3931.549 1507.269 3952.944 C 1507.269 4079.64 1404.569 4182.34 1277.874 4182.34 C 1198.134 4182.34 1127.956 4141.617 1086.841 4079.868 C 1067.045 4087.852 1045.465 4092.355 1022.808 4092.355 C 928.102 4092.355 851.331 4015.574 851.331 3920.868 C 851.331 3910.753 852.376 3900.909 854.055 3891.272 L 828.256 3891.272 C 759.62 3891.272 703.982 3835.636 703.982 3767.002 C 703.982 3698.368 759.62 3642.722 828.256 3642.722 L 1507.269 3642.722 C 1575.903 3642.722 1631.539 3698.368 1631.539 3767.002 C 1631.539 3835.636 1575.903 3891.272 1507.269 3891.272" style="fill: rgb(198, 218, 235); fill-opacity: 1; fill-rule: nonzero; stroke: none;" id="path20"/>
      <path d="M 4485.304 957.376 L 4448.583 957.376 C 4450.976 971.07 4452.466 985.091 4452.466 999.492 C 4452.466 1134.28 4343.196 1243.55 4208.408 1243.55 C 4176.18 1243.55 4145.485 1237.154 4117.324 1225.81 C 4058.817 1313.696 3958.89 1371.648 3845.378 1371.648 C 3665.07 1371.648 3518.883 1225.462 3518.883 1045.154 C 3518.883 1014.72 3523.147 985.308 3530.934 957.376 L 3518.883 957.376 C 3421.207 957.376 3342.012 878.17 3342.012 780.483 C 3342.012 682.806 3421.207 603.604 3518.883 603.604 L 4485.304 603.604 C 4583.001 603.604 4662.185 682.806 4662.185 780.483 C 4662.185 878.17 4583.001 957.376 4485.304 957.376" style="fill: rgb(128, 175, 226); fill-opacity: 1; fill-rule: nonzero; stroke: none;" id="path22"/>
      <path d="M 1988.522 2129.645 L 1988.522 2080.328 L 2818.861 2080.328 L 2818.861 2129.645 L 1988.522 2129.645" style="fill: rgb(150, 190, 228); fill-opacity: 1; fill-rule: nonzero; stroke: none;" id="path24"/>
      <path d="M 3099.324 2038.963 L 3099.324 2014.305 L 3929.663 2014.305 L 3929.663 2038.963 L 3099.324 2038.963" style="fill: rgb(150, 190, 228); fill-opacity: 1; fill-rule: nonzero; stroke: none;" id="path26"/>
      <path d="M 1954.303 2026.009 L 1910.556 1984.937 L 2478.901 1379.589 L 2522.637 1420.649 L 1954.303 2026.009" style="fill: rgb(150, 190, 228); fill-opacity: 1; fill-rule: nonzero; stroke: none;" id="path28"/>
      <path d="M 2731.921 1086.867 L 2737.316 1044.664 L 3560.944 1150.128 L 3555.538 1192.341 L 2731.921 1086.867" style="fill: rgb(150, 190, 228); fill-opacity: 1; fill-rule: nonzero; stroke: none;" id="path30"/>
      <path d="M 3091.178 2009.291 L 3033.355 2025.269 L 2812.041 1224.972 L 2869.885 1208.972 L 3091.178 2009.291" style="fill: rgb(150, 190, 228); fill-opacity: 1; fill-rule: nonzero; stroke: none;" id="path32"/>
      <path d="M 3099.324 2013.467 L 3132.76 2034.416 L 3584.699 1247.64 L 3547.663 1234.957 L 3099.324 2013.467" style="fill: rgb(150, 190, 228); fill-opacity: 1; fill-rule: nonzero; stroke: none;" id="path34"/>
      <path d="M 1623.316 1196.268 L 1966.224 2197.245 L 2047.138 2171.293 L 1657.274 1182.498 L 1623.316 1196.268" style="fill: rgb(150, 190, 228); fill-opacity: 1; fill-rule: nonzero; stroke: none;" id="path36"/>
      <path d="M 1884.766 2102.942 C 1884.864 2078.838 1954.89 2092.184 1972.359 2096.111 C 2004.544 2103.279 2499.632 2605.034 2593.577 2731.023 L 2471.406 2939.415 L 1963.603 2130.569 L 1884.766 2102.942" style="fill: rgb(219, 148, 91); fill-opacity: 1; fill-rule: nonzero; stroke: none;" id="path38"/>
      <path d="M 2774.711 2289.732 C 2735.783 2196.962 2429.628 2037.147 2440.026 1911.626 C 2447.433 1821.673 2491.855 1777.926 2563.154 1704.495 C 2625.62 1640.201 2958.761 1339.768 2958.761 1339.768 C 2958.761 1339.768 3039.773 1287.765 2969.834 1230.237 C 2931.547 1198.748 2903.245 1181.084 2923.53 1166.53 C 2943.805 1151.988 3099.379 1221.959 3136.524 1241.842 C 3173.669 1261.758 3196.663 1273.386 3149.837 1346.24 C 2782.793 1917.195 2783.837 1789.271 2763.334 1881.943 C 2742.776 1974.56 2913.176 2171.554 3052.477 2474.967" style="fill: rgb(219, 148, 91); fill-opacity: 1; fill-rule: nonzero; stroke: none;" id="path40"/>
      <path d="M 2981.581 1304.537 C 2988.499 1285.568 2986.954 1259.072 2953.181 1228.899 C 2916.21 1195.909 2884.417 1157.785 2905.257 1144.102 C 2926.152 1130.397 3104.567 1222.851 3140.875 1244.224 C 3177.171 1265.62 3199.676 1278.182 3149.946 1349.09 L 3133.424 1371.648 L 2981.581 1304.537" style="fill: rgb(45, 69, 138); fill-opacity: 1; fill-rule: nonzero; stroke: none;" id="path42"/>
      <path d="M 3235.319 2056.453 C 3235.319 2056.453 3249.873 2022.43 3208.312 1998.435 C 3166.74 1974.419 2861.651 1998.435 2861.651 1998.435 L 2938.791 2031.545 C 2938.791 2031.545 3165.75 2053.995 3192.769 2081.046 C 3219.787 2108.075 3235.319 2056.453 3235.319 2056.453" style="fill: rgb(229, 200, 100); fill-opacity: 1; fill-rule: nonzero; stroke: none;" id="path44"/>
      <path d="M 3444.767 2373.942 C 3383.627 2855.945 2800.196 3266.9 2676.188 3239.239 C 2552.146 3211.514 2676.188 3239.239 2676.188 3239.239 C 2676.188 3239.239 2582.863 3318.761 2573.041 3362.889 C 2563.176 3407.039 2470.177 3631.66 2269.856 3541.881 C 2069.567 3452.102 2180.621 3298.215 2233.363 3234.921 C 2357.448 3085.896 2439.319 3051.318 2439.319 3051.318 C 2439.319 3051.318 1958.665 2202.031 1877.566 2183.932 C 1796.5 2165.832 1725.201 2190.349 1712.464 2141.544 C 1699.662 2092.315 1710.517 2022.658 1742.669 2029.826 C 1774.854 2037.005 1945.101 2110.055 1945.101 2110.055 C 1945.101 2110.055 2550.58 2763.665 2569.658 2767.928 C 2588.736 2772.181 2816.958 2635.251 2927.37 2515.125 C 2959.044 2480.656 2949.896 2484.115 2916.536 2507.109 L 3444.767 2373.942" style="fill: rgb(235, 162, 95); fill-opacity: 1; fill-rule: nonzero; stroke: none;" id="path46"/>
      <path d="M 2152.199 3230.69 C 2152.199 3230.69 2199.275 3152.778 2215.971 3125.673 C 2218.407 3121.724 2223.509 3120.571 2227.49 3122.964 C 2234.049 3126.924 2241.793 3131.873 2246.688 3135.538 C 2251.31 3139.019 2236.898 3147.264 2220.605 3163.601 C 2203.767 3180.46 2193.608 3184.833 2193.608 3184.833" style="fill: rgb(142, 61, 72); fill-opacity: 1; fill-rule: nonzero; stroke: none;" id="path48"/>
      <path d="M 2006.056 2222.219 C 2006.056 2222.219 1907.576 2213.93 1843.891 2191.883 C 1759.768 2162.754 1691.189 2003.667 1796.434 1955.308 C 1903.388 1906.144 1919.888 1913.225 1919.747 1883.378 C 1919.693 1871.675 1902.17 1856.175 1848.307 1871.675 C 1734.784 1904.36 1643.004 1982.207 1679.833 2103.181 C 1718.805 2231.203 1861.816 2263.018 1952.226 2271.622 C 2042.646 2280.215 2052.153 2271.622 2052.153 2271.622 L 2006.056 2222.219" style="fill: rgb(229, 200, 100); fill-opacity: 1; fill-rule: nonzero; stroke: none;" id="path50"/>
      <path d="M 1784.687 2150.387 C 1703.621 2132.288 1737.264 2043.716 1781.968 2055.453 C 1793.683 2058.52 1955.804 2121.302 1963.603 2130.569 L 2095.715 2302.241 L 2111.911 2499.593 L 1784.687 2150.387" style="fill: rgb(235, 162, 95); fill-opacity: 1; fill-rule: nonzero; stroke: none;" id="path52"/>
      <path d="M 1060.519 1185.804 C 1060.519 1507.165 1321.044 1767.691 1642.405 1767.691 C 1963.766 1767.691 2224.292 1507.165 2224.292 1185.804 C 2224.292 864.443 1963.766 603.919 1642.405 603.919 C 1321.044 603.919 1060.519 864.443 1060.519 1185.804 Z M 988.524 1185.804 C 988.524 824.666 1281.278 531.914 1642.405 531.914 C 2003.543 531.914 2296.298 824.666 2296.298 1185.804 C 2296.298 1546.942 2003.543 1839.696 1642.405 1839.696 C 1281.278 1839.696 988.524 1546.942 988.524 1185.804" style="fill: rgb(35, 39, 51); fill-opacity: 1; fill-rule: nonzero; stroke: none;" id="path54"/>
      <path d="M 3002.813 1185.804 C 3002.813 1507.165 3263.339 1767.691 3584.699 1767.691 C 3906.06 1767.691 4166.575 1507.165 4166.575 1185.804 C 4166.575 864.443 3906.06 603.919 3584.699 603.919 C 3263.339 603.919 3002.813 864.443 3002.813 1185.804 Z M 2930.807 1185.804 C 2930.807 824.666 3223.561 531.914 3584.699 531.914 C 3945.827 531.914 4238.592 824.666 4238.592 1185.804 C 4238.592 1546.942 3945.827 1839.696 3584.699 1839.696 C 3223.561 1839.696 2930.807 1546.942 2930.807 1185.804" style="fill: rgb(35, 39, 51); fill-opacity: 1; fill-rule: nonzero; stroke: none;" id="path56"/>
      <path d="M 1557.228 1185.815 C 1557.228 1138.761 1595.362 1100.637 1642.405 1100.637 C 1689.448 1100.637 1727.583 1138.761 1727.583 1185.815 C 1727.583 1232.847 1689.448 1270.993 1642.405 1270.993 C 1595.362 1270.993 1557.228 1232.847 1557.228 1185.815" style="fill: rgb(35, 39, 51); fill-opacity: 1; fill-rule: nonzero; stroke: none;" id="path58"/>
      <path d="M 3499.522 1185.815 C 3499.522 1138.761 3537.656 1100.637 3584.699 1100.637 C 3631.742 1100.637 3669.877 1138.761 3669.877 1185.815 C 3669.877 1232.847 3631.742 1270.993 3584.699 1270.993 C 3537.656 1270.993 3499.522 1232.847 3499.522 1185.815" style="fill: rgb(35, 39, 51); fill-opacity: 1; fill-rule: nonzero; stroke: none;" id="path60"/>
      <path d="M 2791.157 912.248 C 2699.04 913.422 2625.24 988.952 2626.404 1081.07 C 2627.415 1173.1 2703.021 1246.9 2795.171 1245.9 C 2887.158 1244.768 2960.98 1169.162 2959.968 1076.925 C 2958.924 984.939 2883.351 911.204 2791.157 912.248" style="fill: rgb(129, 175, 222); fill-opacity: 1; fill-rule: nonzero; stroke: none;" id="path62"/>
      <path d="M 2577.62 983.187 L 2568.592 1006.007 L 2809.833 1106.141 L 2818.861 1083.31 L 2577.62 983.187" style="fill: rgb(150, 190, 228); fill-opacity: 1; fill-rule: nonzero; stroke: none;" id="path64"/>
      <path d="M 2764.313 2361.02 C 2634.79 2277.398 2297.211 2101.593 2269.823 1987.069 C 2248.83 1899.302 2261.839 1843.906 2296.472 1747.59 C 2326.818 1663.239 2527.934 1179.854 2527.934 1179.854 C 2527.934 1179.854 2562.295 1111.427 2474.833 1087.889 C 2426.985 1075.011 2381.464 1055.237 2393.93 1033.635 C 2406.438 1012.022 2607.358 1014.47 2649.397 1017.243 C 2691.437 1020.06 2712.908 1020.648 2704.62 1106.87 C 2644.438 1732.863 2574.031 1772.357 2593.577 1865.225 C 2613.123 1958.071 3037.739 1886.119 3289.9 2104.976" style="fill: rgb(235, 162, 95); fill-opacity: 1; fill-rule: nonzero; stroke: none;" id="path66"/>
      <path d="M 2626.393 983.187 C 2626.393 966.459 2612.818 952.895 2596.122 952.895 L 2508.682 952.895 C 2491.953 952.895 2478.411 966.459 2478.411 983.187 C 2478.411 999.916 2491.953 1013.458 2508.682 1013.458 L 2596.122 1013.458 C 2612.818 1013.458 2626.393 999.916 2626.393 983.187" style="fill: rgb(30, 54, 70); fill-opacity: 1; fill-rule: nonzero; stroke: none;" id="path68"/>
      <path d="M 2534.188 1142.699 C 2531.839 1122.641 2518.569 1099.658 2474.833 1087.889 C 2426.985 1075.011 2381.464 1055.237 2393.93 1033.635 C 2406.438 1012.022 2607.293 1015.644 2649.397 1017.243 C 2723.165 1020.06 2711.831 1056.999 2699.258 1142.699 L 2534.188 1142.699" style="fill: rgb(45, 69, 138); fill-opacity: 1; fill-rule: nonzero; stroke: none;" id="path70"/>
      <path d="M 2818.861 2395.195 C 2740.699 2342.67 2679.57 2318.589 2644.438 2287.905 C 2693.101 2206.099 2919.147 1948.543 2919.147 1948.543 C 2919.147 1948.543 2959.979 1948.543 3156.091 2005.821 C 3322.368 2054.387 3403.935 2182.006 3417.759 2330.347 C 3344.198 2327.367 2911.707 2338.635 2818.861 2395.195" style="fill: rgb(129, 175, 222); fill-opacity: 1; fill-rule: nonzero; stroke: none;" id="path72"/>
      <path d="M 3477.42 2014.305 L 4381.907 2014.305 L 4381.907 2159.904 L 3477.42 2159.904 L 3477.42 2014.305" style="fill: rgb(206, 145, 28); fill-opacity: 1; fill-rule: nonzero; stroke: none;" id="path74"/>
      <path d="M 3477.42 2170.042 L 4381.907 2170.042 L 4381.907 2315.652 L 3477.42 2315.652 L 3477.42 2170.042" style="fill: rgb(206, 145, 28); fill-opacity: 1; fill-rule: nonzero; stroke: none;" id="path76"/>
      <path d="M 3477.42 2325.779 L 4381.907 2325.779 L 4381.907 2471.389 L 3477.42 2471.389 L 3477.42 2325.779" style="fill: rgb(206, 145, 28); fill-opacity: 1; fill-rule: nonzero; stroke: none;" id="path78"/>
      <path d="M 3477.42 2481.515 L 4381.907 2481.515 L 4381.907 2627.126 L 3477.42 2627.126 L 3477.42 2481.515" style="fill: rgb(206, 145, 28); fill-opacity: 1; fill-rule: nonzero; stroke: none;" id="path80"/>
      <path d="M 3477.42 2637.252 L 4381.907 2637.252 L 4381.907 2782.862 L 3477.42 2782.862 L 3477.42 2637.252" style="fill: rgb(206, 145, 28); fill-opacity: 1; fill-rule: nonzero; stroke: none;" id="path82"/>
      <path d="M 3638.323 801.859 C 3631.514 801.859 3625.999 807.374 3625.999 814.181 C 3625.999 820.991 3631.514 826.493 3638.323 826.493 C 3784.51 826.493 3903.461 945.433 3903.461 1091.62 C 3903.461 1098.429 3908.975 1103.944 3915.784 1103.944 C 3922.582 1103.944 3928.108 1098.429 3928.108 1091.62 C 3928.108 931.848 3798.095 801.859 3638.323 801.859" style="fill: rgb(68, 93, 160); fill-opacity: 1; fill-rule: nonzero; stroke: none;" id="path84"/>
      <path d="M 1333.02 1220.589 C 1326.211 1220.589 1320.696 1226.103 1320.696 1232.912 C 1320.696 1392.685 1450.687 1522.676 1610.47 1522.676 C 1617.279 1522.676 1622.794 1517.161 1622.794 1510.352 C 1622.794 1503.543 1617.279 1498.039 1610.47 1498.039 C 1464.273 1498.039 1345.333 1379.099 1345.333 1232.912 C 1345.333 1226.103 1339.829 1220.589 1333.02 1220.589" style="fill: rgb(89, 106, 164); fill-opacity: 1; fill-rule: nonzero; stroke: none;" id="path86"/>
      <path d="M 2361.984 3103.821 L 2355.871 3108.009 L 2356.295 3108.433 C 2356.339 3108.444 2356.382 3108.454 2356.426 3108.465 C 2358.307 3106.877 2360.156 3105.333 2361.984 3103.821" style="fill: rgb(226, 231, 242); fill-opacity: 1; fill-rule: nonzero; stroke: none;" id="path88"/>
      <path d="M 2375.678 3094.423 L 2361.984 3103.821 C 2360.156 3105.333 2358.307 3106.877 2356.426 3108.465 C 2490.115 3139.53 2541.715 3232.572 2562.566 3315.15 C 2562.566 3315.15 2583.07 3181.646 2375.678 3094.423" style="fill: rgb(224, 156, 93); fill-opacity: 1; fill-rule: nonzero; stroke: none;" id="path90"/>
      <path d="M 2070.589 3587.989 C 2070.589 3587.989 2043.136 3512.763 2041.645 3399.142 C 2040.003 3273.687 2135.786 3082.676 2306.783 3100.297 C 2477.78 3117.917 2539.311 3223.044 2562.566 3315.15 C 2562.566 3315.15 2620.432 3325.744 2628.525 3388.33 C 2633.452 3426.367 2629.493 3458.52 2606.662 3473.802 C 2606.662 3473.802 2597.025 3619.826 2549.514 3668.892 C 2502.014 3717.947 2189.888 3816.732 2070.589 3587.989" style="fill: rgb(235, 162, 95); fill-opacity: 1; fill-rule: nonzero; stroke: none;" id="path92"/>
      <path d="M 2322.566 3823.127 C 2368.945 3821.159 2470.906 3826.173 2550.798 3720.873 C 2629.09 3617.661 2613.406 3528.676 2612.557 3503.724 C 2611.622 3476.162 2618.496 3471.387 2591.173 3454.919 C 2563.839 3438.452 2551.809 3404.863 2545.12 3379.792 C 2538.43 3354.71 2532.23 3339.612 2528.5 3324.189 C 2524.758 3308.765 2491.453 3278.255 2482.827 3283.085 C 2474.213 3287.925 2499.676 3390.876 2496.608 3443.227 C 2493.585 3494.653 2468.807 3516.081 2404.535 3517.941 C 2340.273 3519.801 2106.527 3531.537 2060.735 3542.381 C 2026.874 3387.286 2054.23 3308.145 2059.679 3293.004 C 2065.129 3277.864 2009.004 3349.467 1995.429 3429.598 C 1980.408 3518.354 1988.664 3668.631 2077.507 3744.498 C 2172.441 3825.575 2322.566 3823.127 2322.566 3823.127" style="fill: rgb(35, 39, 51); fill-opacity: 1; fill-rule: nonzero; stroke: none;" id="path94"/>
      <path d="M 2247.166 3278.995 C 2246.622 3278.995 2246.068 3278.995 2245.513 3279.017 C 2231.036 3279.463 2218.473 3287.24 2220.746 3295.376 C 2221.681 3298.726 2231.993 3356.972 2236.289 3381.271 C 2236.561 3382.794 2237.812 3383.588 2239.063 3383.588 C 2240.161 3383.588 2241.26 3382.99 2241.706 3381.717 L 2274.109 3290.046 C 2273.945 3285.401 2262.394 3278.995 2247.166 3278.995" style="fill: rgb(240, 122, 84); fill-opacity: 1; fill-rule: nonzero; stroke: none;" id="path96"/>
      <path d="M 2331.235 3394.269 C 2330.223 3386.677 2335.553 3379.705 2343.145 3378.693 C 2350.737 3377.682 2357.698 3383.012 2358.71 3390.604 C 2359.721 3398.185 2354.392 3405.168 2346.81 3406.18 C 2339.218 3407.191 2332.246 3401.851 2331.235 3394.269" style="fill: rgb(35, 39, 51); fill-opacity: 1; fill-rule: nonzero; stroke: none;" id="path98"/>
      <path d="M 2118.274 3358.854 C 2117.273 3351.273 2122.603 3344.289 2130.195 3343.289 C 2137.776 3342.266 2144.759 3347.607 2145.76 3355.188 C 2146.782 3362.78 2141.442 3369.753 2133.861 3370.764 C 2126.268 3371.776 2119.296 3366.446 2118.274 3358.854" style="fill: rgb(35, 39, 51); fill-opacity: 1; fill-rule: nonzero; stroke: none;" id="path100"/>
      <path d="M 2298.821 3220.607 C 2259.675 3210.47 2256.053 3241.339 2256.858 3243.351 C 2257.652 3245.374 2259.947 3246.375 2261.981 3245.559 C 2285.856 3236.052 2312.363 3260.156 2313.07 3261.08 C 2314.364 3262.81 2316.866 3263.125 2318.595 3261.798 C 2320.325 3260.482 2326.731 3232.3 2298.821 3220.607" style="fill: rgb(255, 255, 255); fill-opacity: 1; fill-rule: nonzero; stroke: none;" id="path102"/>
      <path d="M 2376.613 3322.09 C 2358.558 3322.09 2343.928 3330.062 2342.057 3341.994 C 2339.86 3356.058 2356.208 3370.307 2378.582 3373.81 C 2381.965 3374.332 2385.293 3374.593 2388.513 3374.593 C 2406.569 3374.593 2421.198 3366.62 2423.069 3354.677 C 2425.266 3340.624 2408.918 3326.375 2386.555 3322.873 C 2383.161 3322.351 2379.833 3322.09 2376.613 3322.09" style="fill: rgb(238, 143, 91); fill-opacity: 1; fill-rule: nonzero; stroke: none;" id="path104"/>
      <path d="M 2100.838 3283.095 C 2082.771 3283.095 2068.142 3291.068 2066.282 3303 C 2064.074 3317.064 2080.422 3331.302 2102.796 3334.805 C 2106.179 3335.338 2109.507 3335.588 2112.727 3335.588 C 2130.793 3335.588 2145.412 3327.615 2147.283 3315.683 C 2149.491 3301.619 2133.143 3287.381 2110.769 3283.879 C 2107.386 3283.346 2104.058 3283.095 2100.838 3283.095" style="fill: rgb(238, 143, 91); fill-opacity: 1; fill-rule: nonzero; stroke: none;" id="path106"/>
      <path d="M 2582.45 2713.184 L 2555.529 2679.651 C 2514.327 2696.51 2383.063 2844.698 2337.902 2885.541 C 2390.59 2999.086 2450.153 3162.48 2604.334 3227.623 C 2633.408 3239.914 2745.05 3298.878 3016.757 3115.002 C 3576.466 2736.244 3448.726 2248.835 3424.394 2243.364 C 3400.019 2237.936 2998.364 2274.2 2818.861 2395.195 C 2818.861 2395.195 2629.765 2719.537 2611.23 2742.378" style="fill: rgb(238, 169, 25); fill-opacity: 1; fill-rule: nonzero; stroke: none;" id="path108"/>
      <path d="M 1663.583 2068.657 C 1667.248 2070.637 1671.327 2072.508 1675.678 2074.281 C 1670.816 2073.008 1665.954 2071.431 1661.114 2069.332 C 1653.065 2065.829 1647.833 2056.453 1639.349 2061.109 C 1630.658 2065.873 1635.139 2081.296 1666.846 2098.482 C 1676.679 2103.812 1689.274 2108.402 1703.001 2111.872 C 1691.711 2112.568 1680.029 2111.719 1668.151 2108.249 C 1659.721 2105.802 1653.348 2097.166 1645.516 2102.844 C 1637.5 2108.663 1643.895 2123.401 1677.516 2136.443 C 1688.263 2140.619 1701.815 2143.632 1716.369 2145.318 C 1704.328 2146.058 1692.472 2145.318 1681.323 2142.066 C 1672.893 2139.608 1666.53 2130.972 1658.699 2136.671 C 1650.672 2142.49 1657.067 2157.218 1690.688 2170.259 C 1751.197 2193.754 1904.084 2151.844 1864.601 2095.643 C 1864.601 2095.643 1975.317 2145.558 1945.101 2110.055 C 1905.193 2063.175 1797.859 2027.923 1773.984 2026.998 C 1730.302 2025.323 1700.836 2058.204 1657.851 2039.496 C 1649.802 2036.004 1644.581 2026.618 1636.086 2031.273 C 1627.406 2036.048 1631.887 2051.461 1663.583 2068.657" style="fill: rgb(235, 162, 95); fill-opacity: 1; fill-rule: nonzero; stroke: none;" id="path110"/>
      <path d="M 1968.389 3461.108 C 1968.389 3461.108 2410.887 3459.738 2654.749 3495.153 C 2670.945 3497.503 2681.3 3513.666 2676.786 3529.383 C 2666.257 3565.908 2646.7 3628.701 2625.087 3672.568 C 2577.511 3769.101 2468.48 3854.399 2346.484 3865.385 C 2201.385 3878.437 1921.096 3789.811 1968.389 3461.108" style="fill: rgb(45, 69, 138); fill-opacity: 1; fill-rule: nonzero; stroke: none;" id="path112"/>
      <path d="M 2477.367 3486.343 C 2477.367 3486.343 2537.419 3246.353 2355.871 3108.009 C 2355.871 3108.009 2563.121 3150.625 2519.559 3491.433 L 2477.367 3486.343" style="fill: rgb(105, 159, 213); fill-opacity: 1; fill-rule: nonzero; stroke: none;" id="path114"/>
      <path d="M 3868.023 2014.305 L 3991.303 2014.305 L 3991.303 2790.792 L 3868.023 2790.792 L 3868.023 2014.305" style="fill: rgb(45, 69, 138); fill-opacity: 1; fill-rule: nonzero; stroke: none;" id="path116"/>
      <path d="M 4512.812 4200.548 C 4499.531 4200.548 4486.783 4198.373 4474.797 4194.457 C 4474.144 4270.498 4412.352 4331.953 4336.158 4331.953 C 4332.167 4331.953 4328.229 4331.681 4324.313 4331.355 C 4289.366 4393.778 4222.635 4436.003 4145.996 4436.003 C 4074.98 4436.003 4012.492 4399.739 3975.891 4344.756 C 3958.259 4351.858 3939.039 4355.872 3918.873 4355.872 C 3834.533 4355.872 3766.171 4287.499 3766.171 4203.17 C 3766.171 4194.164 3767.107 4185.386 3768.608 4176.815 L 3745.625 4176.815 C 3684.507 4176.815 3634.951 4127.27 3634.951 4066.152 C 3634.951 4005.023 3684.507 3955.479 3745.625 3955.479 L 4474.862 3955.479 C 4482.084 3955.479 4487.349 3956.197 4491.112 3957.513 C 4498.171 3956.251 4505.394 3955.479 4512.812 3955.479 C 4580.477 3955.479 4635.341 4010.342 4635.341 4078.008 C 4635.341 4145.685 4580.477 4200.548 4512.812 4200.548" style="fill: rgb(198, 218, 235); fill-opacity: 1; fill-rule: nonzero; stroke: none;" id="path118"/>
    </g>
  </g>
</svg>